<?xml version="1.0" encoding="utf-8"?>
<!-- Generator: Adobe Illustrator 16.0.0, SVG Export Plug-In . SVG Version: 6.00 Build 0)  -->
<svg version="1.2" baseProfile="tiny" id="Layer_1" xmlns="http://www.w3.org/2000/svg" xmlns:xlink="http://www.w3.org/1999/xlink"
	 x="0px" y="0px" width="64px" height="160px" viewBox="0 0 64 160" xml:space="preserve">
<text transform="matrix(1 0 0 1 32 28.6465)" fill="#E6E6E6" font-family="'FontAwesome'" font-size="35.6999"></text>
<text transform="matrix(-1.0093 0 0 1 30.8457 28.6475)" fill="#E6E6E6" font-family="'FontAwesome'" font-size="35.6999"></text>
<text transform="matrix(1 0 0 1 32 59.6426)" fill="#E6E6E6" font-family="'FontAwesome'" font-size="35.6999"></text>
<text transform="matrix(1 0 0 1 -1 59.6426)" fill="#E6E6E6" font-family="'FontAwesome'" font-size="35.6999"></text>
<text transform="matrix(1 0 0 1 32 93.2891)" fill="#E6E6E6" font-family="'FontAwesome'" font-size="35.6999"></text>
<text transform="matrix(1 0 0 1 -1 92.2891)" fill="#E6E6E6" font-family="'FontAwesome'" font-size="35.6999"></text>
<text transform="matrix(-1 0 0 -1 31.2329 100.5596)" fill="#E6E6E6" font-family="'FontAwesome'" font-size="30.9582"></text>
<text transform="matrix(0.9822 0 0 -1 33.0508 100.5586)" fill="#E6E6E6" font-family="'FontAwesome'" font-size="30.9582"></text>
<text transform="matrix(-0.9822 0 0 1 25.6812 156.1074)" fill="#E6E6E6" font-family="'FontAwesome'" font-size="30.9582"></text>
<text transform="matrix(-0.9822 0 0 1 57.3066 156.1074)" fill="#E6E6E6" font-family="'FontAwesome'" font-size="30.9582"></text>
</svg>
