<?xml version="1.0" encoding="utf-8"?>
<!-- Generator: Adobe Illustrator 16.0.0, SVG Export Plug-In . SVG Version: 6.00 Build 0)  -->
<svg version="1.2" baseProfile="tiny" id="Layer_1" xmlns="http://www.w3.org/2000/svg" xmlns:xlink="http://www.w3.org/1999/xlink"
	 x="0px" y="0px" width="32px" height="32px" viewBox="0 0 32 32" xml:space="preserve">
<path fill="#F2F2F2" d="M29.115,17.812c-0.025,0.854-0.679,1.507-1.528,1.53c-0.854-0.023-1.51-0.677-1.529-1.53
	c-0.004-0.039-0.01-0.079-0.018-0.115c0.008-0.041,0.018-0.085,0.018-0.134c0-4.458,0-8.917,0-13.375
	c1.248-0.657,2.501-1.315,3.749-1.973c1.04-0.545,0.537-2.152-0.581-2.152c-5.653,0-11.304,0-16.955,0c-3.705,0-7.41,0-11.117,0
	c-0.358,0-0.629,0.135-0.815,0.338C0.135,0.587,0,0.859,0,1.217c0,2.354,0,4.707,0,7.059c0,0.63,0.525,1.155,1.154,1.155
	c1.081,0,2.16,0,3.238,0C3.75,14.973,3.108,20.516,2.465,26.055c-0.186,1.611-0.374,3.221-0.56,4.834
	c-0.074,0.624,0.581,1.157,1.154,1.157c0.685,0,1.083-0.533,1.154-1.157c0.051-0.44,0.103-0.883,0.154-1.324
	c2.042-1.788,4.085-3.583,6.127-5.371c2.029,1.776,4.057,3.557,6.084,5.334c0.016,0.012,0.031,0.025,0.043,0.037
	c0.051,0.441,0.102,0.884,0.153,1.324c0.073,0.624,0.47,1.157,1.157,1.157c0.572,0,1.224-0.529,1.152-1.157
	c-0.687-5.925-1.373-11.853-2.062-17.778c-0.154-1.311-0.303-2.623-0.455-3.933c0.006-0.005,0.018-0.009,0.025-0.013
	c2.733-1.438,5.464-2.875,8.202-4.313c0,4.228,0,8.455,0,12.683c0,0.009,0,0.019,0,0.029c0,0.04,0.004,0.076,0.008,0.113
	c-0.008,0.042-0.008,0.088-0.008,0.136c0.037,1.501,1.168,2.67,2.643,2.777c0.047,0.008,0.092,0.012,0.147,0.012
	c0.049,0,0.096-0.004,0.142-0.012c1.479-0.107,2.607-1.276,2.645-2.777C30.395,17,29.137,17.002,29.115,17.812z M10.417,9.432
	c0.053,0,0.104,0,0.156,0c0.522,0,1.046,0,1.569,0c-0.549,0.485-1.098,0.969-1.647,1.454C9.947,10.4,9.397,9.917,8.85,9.432
	c0.194,0,0.389,0,0.583,0C9.761,9.432,10.089,9.432,10.417,9.432z M6.577,10.501c0.726,0.641,1.452,1.282,2.178,1.922
	c-0.891,0.788-1.782,1.575-2.674,2.362c0.065-0.558,0.13-1.117,0.195-1.675C6.376,12.241,6.477,11.37,6.577,10.501z M10.496,13.961
	c1.357,1.199,2.715,2.4,4.074,3.599c-1.358,1.19-2.716,2.381-4.074,3.571c-1.359-1.19-2.716-2.381-4.073-3.571
	C7.779,16.361,9.137,15.16,10.496,13.961z M12.237,12.423c0.725-0.641,1.45-1.282,2.176-1.922c0.166,1.428,0.332,2.856,0.497,4.285
	C14.019,13.999,13.128,13.211,12.237,12.423z M4.763,26.154c0.245-2.111,0.49-4.229,0.736-6.34c1.083,0.947,2.166,1.899,3.249,2.846
	C7.419,23.825,6.091,24.99,4.763,26.154z M12.244,22.664c1.083-0.95,2.167-1.902,3.25-2.85c0.241,2.078,0.482,4.16,0.724,6.24
	c0.004,0.033,0.008,0.066,0.012,0.1C14.899,24.99,13.571,23.825,12.244,22.664z M15.522,7.123c-0.072,0-0.142,0-0.211,0
	c-1.579,0-3.157,0-4.737,0c-0.051,0-0.104,0-0.155,0c-1.579,0-3.158,0-4.737,0c-1.124,0-2.247,0-3.371,0c0-1.584,0-3.167,0-4.749
	c5.267,0,10.533,0,15.8,0c2.148,0,4.294,0,6.442,0C21.54,3.956,18.531,5.539,15.522,7.123z"/>
<text transform="matrix(1 0 0 1 -15.7446 39.0244)" font-family="'HelveticaNeue-Bold'" font-size="3.7037">C</text>
<text transform="matrix(1 0 0 1 -13 39.0244)" font-family="'HelveticaNeue-Bold'" font-size="3.7037">r</text>
<text transform="matrix(1 0 0 1 -11.6255 39.0244)" font-family="'HelveticaNeue-Bold'" font-size="3.7037">e</text>
<text transform="matrix(1 0 0 1 -9.4995 39.0244)" font-family="'HelveticaNeue-Bold'" font-size="3.7037">a</text>
<text transform="matrix(1 0 0 1 -7.3735 39.0244)" font-family="'HelveticaNeue-Bold'" font-size="3.7037">t</text>
<text transform="matrix(1 0 0 1 -6.0698 39.0244)" font-family="'HelveticaNeue-Bold'" font-size="3.7037">e</text>
<text transform="matrix(1 0 0 1 -3.9438 39.0244)" font-family="'HelveticaNeue-Bold'" font-size="3.7037">d</text>
<text transform="matrix(1 0 0 1 -1.6812 39.0244)" font-family="'HelveticaNeue-Bold'" font-size="3.7037"> </text>
<text transform="matrix(1 0 0 1 -0.6514 39.0244)" font-family="'HelveticaNeue-Bold'" font-size="3.7037">b</text>
<text transform="matrix(1 0 0 1 1.6113 39.0244)" font-family="'HelveticaNeue-Bold'" font-size="3.7037">y</text>
<text transform="matrix(1 0 0 1 3.5337 39.0244)" font-family="'HelveticaNeue-Bold'" font-size="3.7037"> </text>
<text transform="matrix(1 0 0 1 4.5635 39.0244)" font-family="'HelveticaNeue-Bold'" font-size="3.7037">E</text>
<text transform="matrix(1 0 0 1 6.9634 39.0244)" font-family="'HelveticaNeue-Bold'" font-size="3.7037">d</text>
<text transform="matrix(1 0 0 1 9.2261 39.0244)" font-family="'HelveticaNeue-Bold'" font-size="3.7037">w</text>
<text transform="matrix(1 0 0 1 12.2407 39.0244)" font-family="'HelveticaNeue-Bold'" font-size="3.7037">a</text>
<text transform="matrix(1 0 0 1 14.3667 39.0244)" font-family="'HelveticaNeue-Bold'" font-size="3.7037">r</text>
<text transform="matrix(1 0 0 1 15.7407 39.0244)" font-family="'HelveticaNeue-Bold'" font-size="3.7037">d</text>
<text transform="matrix(1 0 0 1 18.0039 39.0244)" font-family="'HelveticaNeue-Bold'" font-size="3.7037"> </text>
<text transform="matrix(1 0 0 1 19.0332 39.0244)" font-family="'HelveticaNeue-Bold'" font-size="3.7037">B</text>
<text transform="matrix(1 0 0 1 21.6406 39.0244)" font-family="'HelveticaNeue-Bold'" font-size="3.7037">o</text>
<text transform="matrix(1 0 0 1 23.9033 39.0244)" font-family="'HelveticaNeue-Bold'" font-size="3.7037">a</text>
<text transform="matrix(1 0 0 1 26.0293 39.0244)" font-family="'HelveticaNeue-Bold'" font-size="3.7037">t</text>
<text transform="matrix(1 0 0 1 27.333 39.0244)" font-family="'HelveticaNeue-Bold'" font-size="3.7037">m</text>
<text transform="matrix(1 0 0 1 30.6885 39.0244)" font-family="'HelveticaNeue-Bold'" font-size="3.7037">a</text>
<text transform="matrix(1 0 0 1 32.8145 39.0244)" font-family="'HelveticaNeue-Bold'" font-size="3.7037">n</text>
</svg>
