<?xml version="1.0" encoding="utf-8"?>
<!-- Generator: Adobe Illustrator 16.0.0, SVG Export Plug-In . SVG Version: 6.00 Build 0)  -->
<svg version="1.2" baseProfile="tiny" id="Layer_1" xmlns="http://www.w3.org/2000/svg" xmlns:xlink="http://www.w3.org/1999/xlink"
	 x="0px" y="0px" width="32px" height="32px" viewBox="0 0 32 32" xml:space="preserve">
<text transform="matrix(1 0 0 1 -15.7446 39.0244)" font-family="'HelveticaNeue-Bold'" font-size="3.7037">C</text>
<text transform="matrix(1 0 0 1 -13 39.0244)" font-family="'HelveticaNeue-Bold'" font-size="3.7037">r</text>
<text transform="matrix(1 0 0 1 -11.5591 39.0244)" font-family="'HelveticaNeue-Bold'" font-size="3.7037">a</text>
<text transform="matrix(1 0 0 1 -9.4331 39.0244)" font-family="'HelveticaNeue-Bold'" font-size="3.7037">n</text>
<text transform="matrix(1 0 0 1 -7.2368 39.0244)" font-family="'HelveticaNeue-Bold'" font-size="3.7037">e</text>
<text transform="matrix(1 0 0 1 -5.1108 39.0244)" font-family="'HelveticaNeue-Bold'" font-size="3.7037"> </text>
<text transform="matrix(1 0 0 1 -4.0811 39.0244)" font-family="'HelveticaNeue-Bold'" font-size="3.7037">C</text>
<text transform="matrix(1 0 0 1 -1.3364 39.0244)" font-family="'HelveticaNeue-Bold'" font-size="3.7037">r</text>
<text transform="matrix(1 0 0 1 0.0381 39.0244)" font-family="'HelveticaNeue-Bold'" font-size="3.7037">e</text>
<text transform="matrix(1 0 0 1 2.1641 39.0244)" font-family="'HelveticaNeue-Bold'" font-size="3.7037">a</text>
<text transform="matrix(1 0 0 1 4.29 39.0244)" font-family="'HelveticaNeue-Bold'" font-size="3.7037">t</text>
<text transform="matrix(1 0 0 1 5.5938 39.0244)" font-family="'HelveticaNeue-Bold'" font-size="3.7037">e</text>
<text transform="matrix(1 0 0 1 7.7197 39.0244)" font-family="'HelveticaNeue-Bold'" font-size="3.7037">d</text>
<text transform="matrix(1 0 0 1 9.9824 39.0244)" font-family="'HelveticaNeue-Bold'" font-size="3.7037"> </text>
<text transform="matrix(1 0 0 1 11.0122 39.0244)" font-family="'HelveticaNeue-Bold'" font-size="3.7037">b</text>
<text transform="matrix(1 0 0 1 13.2749 39.0244)" font-family="'HelveticaNeue-Bold'" font-size="3.7037">y</text>
<text transform="matrix(1 0 0 1 15.1973 39.0244)" font-family="'HelveticaNeue-Bold'" font-size="3.7037"> </text>
<text transform="matrix(1 0 0 1 16.2271 39.0244)" font-family="'HelveticaNeue-Bold'" font-size="3.7037">E</text>
<text transform="matrix(1 0 0 1 18.627 39.0244)" font-family="'HelveticaNeue-Bold'" font-size="3.7037">d</text>
<text transform="matrix(1 0 0 1 20.8896 39.0244)" font-family="'HelveticaNeue-Bold'" font-size="3.7037">w</text>
<text transform="matrix(1 0 0 1 23.9043 39.0244)" font-family="'HelveticaNeue-Bold'" font-size="3.7037">a</text>
<text transform="matrix(1 0 0 1 26.0303 39.0244)" font-family="'HelveticaNeue-Bold'" font-size="3.7037">r</text>
<text transform="matrix(1 0 0 1 27.4043 39.0244)" font-family="'HelveticaNeue-Bold'" font-size="3.7037">d</text>
<text transform="matrix(1 0 0 1 29.667 39.0244)" font-family="'HelveticaNeue-Bold'" font-size="3.7037"> </text>
<text transform="matrix(1 0 0 1 30.6973 39.0244)" font-family="'HelveticaNeue-Bold'" font-size="3.7037">B</text>
<text transform="matrix(1 0 0 1 33.3047 39.0244)" font-family="'HelveticaNeue-Bold'" font-size="3.7037">o</text>
<text transform="matrix(1 0 0 1 35.5664 39.0244)" font-family="'HelveticaNeue-Bold'" font-size="3.7037">a</text>
<text transform="matrix(1 0 0 1 37.6934 39.0244)" font-family="'HelveticaNeue-Bold'" font-size="3.7037">t</text>
<text transform="matrix(1 0 0 1 38.9961 39.0244)" font-family="'HelveticaNeue-Bold'" font-size="3.7037">m</text>
<text transform="matrix(1 0 0 1 42.3516 39.0244)" font-family="'HelveticaNeue-Bold'" font-size="3.7037">a</text>
<text transform="matrix(1 0 0 1 44.4785 39.0244)" font-family="'HelveticaNeue-Bold'" font-size="3.7037">n</text>
<text transform="matrix(1 0 0 1 -15.7407 43.2549)" font-family="'HelveticaNeue-Bold'" font-size="3.7037">E</text>
<text transform="matrix(1 0 0 1 -13.3408 43.2549)" font-family="'HelveticaNeue-Bold'" font-size="3.7037">y</text>
<text transform="matrix(1 0 0 1 -11.4185 43.2549)" font-family="'HelveticaNeue-Bold'" font-size="3.7037">e</text>
<text transform="matrix(1 0 0 1 -9.2925 43.2549)" font-family="'HelveticaNeue-Bold'" font-size="3.7037"> </text>
<text transform="matrix(1 0 0 1 -8.2627 43.2549)" font-family="'HelveticaNeue-Bold'" font-size="3.7037">C</text>
<text transform="matrix(1 0 0 1 -5.5181 43.2549)" font-family="'HelveticaNeue-Bold'" font-size="3.7037">r</text>
<text transform="matrix(1 0 0 1 -4.1436 43.2549)" font-family="'HelveticaNeue-Bold'" font-size="3.7037">e</text>
<text transform="matrix(1 0 0 1 -2.0176 43.2549)" font-family="'HelveticaNeue-Bold'" font-size="3.7037">a</text>
<text transform="matrix(1 0 0 1 0.1084 43.2549)" font-family="'HelveticaNeue-Bold'" font-size="3.7037">t</text>
<text transform="matrix(1 0 0 1 1.4121 43.2549)" font-family="'HelveticaNeue-Bold'" font-size="3.7037">e</text>
<text transform="matrix(1 0 0 1 3.5381 43.2549)" font-family="'HelveticaNeue-Bold'" font-size="3.7037">d</text>
<text transform="matrix(1 0 0 1 5.8008 43.2549)" font-family="'HelveticaNeue-Bold'" font-size="3.7037"> </text>
<text transform="matrix(1 0 0 1 6.8306 43.2549)" font-family="'HelveticaNeue-Bold'" font-size="3.7037">b</text>
<text transform="matrix(1 0 0 1 9.0933 43.2549)" font-family="'HelveticaNeue-Bold'" font-size="3.7037">y</text>
<text transform="matrix(1 0 0 1 11.0156 43.2549)" font-family="'HelveticaNeue-Bold'" font-size="3.7037"> </text>
<text transform="matrix(1 0 0 1 12.0454 43.2549)" font-family="'HelveticaNeue-Bold'" font-size="3.7037">R</text>
<text transform="matrix(1 0 0 1 14.7192 43.2549)" font-family="'HelveticaNeue-Bold'" font-size="3.7037">i</text>
<text transform="matrix(1 0 0 1 15.6748 43.2549)" font-family="'HelveticaNeue-Bold'" font-size="3.7037">c</text>
<text transform="matrix(1 0 0 1 17.8008 43.2549)" font-family="'HelveticaNeue-Bold'" font-size="3.7037">a</text>
<text transform="matrix(1 0 0 1 19.9268 43.2549)" font-family="'HelveticaNeue-Bold'" font-size="3.7037">r</text>
<text transform="matrix(1 0 0 1 21.3008 43.2549)" font-family="'HelveticaNeue-Bold'" font-size="3.7037">d</text>
<text transform="matrix(1 0 0 1 23.5635 43.2549)" font-family="'HelveticaNeue-Bold'" font-size="3.7037">o</text>
<text transform="matrix(1 0 0 1 25.8262 43.2549)" font-family="'HelveticaNeue-Bold'" font-size="3.7037"> </text>
<text transform="matrix(1 0 0 1 26.8555 43.2549)" font-family="'HelveticaNeue-Bold'" font-size="3.7037">M</text>
<text transform="matrix(1 0 0 1 30.2148 43.2549)" font-family="'HelveticaNeue-Bold'" font-size="3.7037">o</text>
<text transform="matrix(1 0 0 1 32.4785 43.2549)" font-family="'HelveticaNeue-Bold'" font-size="3.7037">r</text>
<text transform="matrix(1 0 0 1 33.8525 43.2549)" font-family="'HelveticaNeue-Bold'" font-size="3.7037">e</text>
<text transform="matrix(1 0 0 1 35.9785 43.2549)" font-family="'HelveticaNeue-Bold'" font-size="3.7037">i</text>
<text transform="matrix(1 0 0 1 36.9336 43.2549)" font-family="'HelveticaNeue-Bold'" font-size="3.7037">r</text>
<text transform="matrix(1 0 0 1 38.375 43.2549)" font-family="'HelveticaNeue-Bold'" font-size="3.7037">a</text>
<text transform="matrix(1 0 0 1 -15.7407 46.959)" font-family="'HelveticaNeue-Bold'" font-size="3.7037">f</text>
<text transform="matrix(1 0 0 1 -14.5073 46.959)" font-family="'HelveticaNeue-Bold'" font-size="3.7037">r</text>
<text transform="matrix(1 0 0 1 -13.1328 46.959)" font-family="'HelveticaNeue-Bold'" font-size="3.7037">o</text>
<text transform="matrix(1 0 0 1 -10.8701 46.959)" font-family="'HelveticaNeue-Bold'" font-size="3.7037">m</text>
<text transform="matrix(1 0 0 1 -7.5146 46.959)" font-family="'HelveticaNeue-Bold'" font-size="3.7037"> </text>
<text transform="matrix(1 0 0 1 -6.4849 46.959)" font-family="'HelveticaNeue-Bold'" font-size="3.7037">t</text>
<text transform="matrix(1 0 0 1 -5.1812 46.959)" font-family="'HelveticaNeue-Bold'" font-size="3.7037">h</text>
<text transform="matrix(1 0 0 1 -2.9849 46.959)" font-family="'HelveticaNeue-Bold'" font-size="3.7037">e</text>
<text transform="matrix(1 0 0 1 -0.8589 46.959)" font-family="'HelveticaNeue-Bold'" font-size="3.7037"> </text>
<text transform="matrix(1 0 0 1 0.1709 46.959)" font-family="'HelveticaNeue-Bold'" font-size="3.7037">N</text>
<text transform="matrix(1 0 0 1 2.9155 46.959)" font-family="'HelveticaNeue-Bold'" font-size="3.7037">o</text>
<text transform="matrix(1 0 0 1 5.1782 46.959)" font-family="'HelveticaNeue-Bold'" font-size="3.7037">u</text>
<text transform="matrix(1 0 0 1 7.3745 46.959)" font-family="'HelveticaNeue-Bold'" font-size="3.7037">n</text>
<text transform="matrix(1 0 0 1 9.5708 46.959)" font-family="'HelveticaNeue-Bold'" font-size="3.7037"> </text>
<text transform="matrix(1 0 0 1 10.6006 46.959)" font-family="'HelveticaNeue-Bold'" font-size="3.7037">P</text>
<text transform="matrix(1 0 0 1 13.0708 46.959)" font-family="'HelveticaNeue-Bold'" font-size="3.7037">r</text>
<text transform="matrix(1 0 0 1 14.4448 46.959)" font-family="'HelveticaNeue-Bold'" font-size="3.7037">o</text>
<text transform="matrix(1 0 0 1 16.7075 46.959)" font-family="'HelveticaNeue-Bold'" font-size="3.7037">j</text>
<text transform="matrix(1 0 0 1 17.7373 46.959)" font-family="'HelveticaNeue-Bold'" font-size="3.7037">e</text>
<text transform="matrix(1 0 0 1 19.8633 46.959)" font-family="'HelveticaNeue-Bold'" font-size="3.7037">c</text>
<text transform="matrix(1 0 0 1 21.9893 46.959)" font-family="'HelveticaNeue-Bold'" font-size="3.7037">t</text>
<g>
	<line fill="#F2F2F2" x1="2.83" y1="13.045" x2="4.113" y2="14.791"/>
	<path fill="#F2F2F2" d="M16.212,13.971c-2.352,0-4.258,1.906-4.258,4.258c0,2.352,1.907,4.258,4.258,4.258
		c2.351,0,4.257-1.906,4.257-4.258C20.469,15.877,18.563,13.971,16.212,13.971z M17.694,17.559c-0.531,0-0.962-0.43-0.962-0.961
		c0-0.531,0.431-0.961,0.962-0.961c0.532,0,0.963,0.43,0.963,0.961C18.657,17.129,18.227,17.559,17.694,17.559z"/>
	<path fill="#F2F2F2" d="M29.916,16.617c-0.085-0.009-0.167-0.048-0.229-0.114c-0.141-0.149-0.134-0.384,0.016-0.525l1.672-1.572
		c0.149-0.139,0.384-0.134,0.524,0.016c0.141,0.149,0.134,0.384-0.016,0.523l-1.673,1.573
		C30.127,16.595,30.021,16.628,29.916,16.617z"/>
	<path fill="#F2F2F2" d="M27.965,14.96c-0.071-0.003-0.143-0.028-0.205-0.074c-0.163-0.125-0.195-0.357-0.072-0.52l1.23-1.757
		c0.124-0.164,0.357-0.196,0.521-0.073c0.162,0.124,0.194,0.356,0.072,0.52l-1.231,1.756C28.203,14.916,28.083,14.967,27.965,14.96z
		"/>
	<path fill="#F2F2F2" d="M25.721,13.629c-0.051-0.004-0.101-0.019-0.148-0.046c-0.179-0.099-0.243-0.325-0.145-0.504l1.176-1.96
		c0.099-0.179,0.322-0.245,0.505-0.145c0.178,0.1,0.242,0.326,0.145,0.505l-1.176,1.961C26.004,13.571,25.863,13.64,25.721,13.629z"
		/>
	<path fill="#F2F2F2" d="M23.51,12.545c-0.044,0-0.087-0.007-0.129-0.023c-0.193-0.069-0.293-0.281-0.224-0.474l0.791-2.043
		c0.07-0.192,0.282-0.292,0.475-0.222c0.193,0.069,0.293,0.281,0.224,0.475l-0.79,2.043C23.802,12.45,23.66,12.544,23.51,12.545z"/>
	<path fill="#F2F2F2" d="M21.031,11.731c-0.02-0.002-0.04-0.007-0.061-0.013c-0.198-0.055-0.313-0.258-0.258-0.456l0.586-2.12
		c0.056-0.197,0.258-0.312,0.457-0.257c0.198,0.056,0.313,0.26,0.258,0.457l-0.587,2.119C21.378,11.637,21.209,11.749,21.031,11.731
		z"/>
	<path fill="#F2F2F2" d="M18.524,11.364c-0.021,0-0.041-0.001-0.063-0.004c-0.202-0.03-0.343-0.22-0.312-0.421l0.349-2.298
		c0.031-0.202,0.216-0.343,0.422-0.312c0.203,0.03,0.343,0.219,0.312,0.421l-0.348,2.298C18.855,11.229,18.702,11.36,18.524,11.364z
		"/>
	<path fill="#F2F2F2" d="M15.938,11.203L15.938,11.203c-0.205,0.004-0.375-0.159-0.379-0.362l-0.018-2.303
		c-0.005-0.205,0.157-0.374,0.361-0.378l0,0c0.205-0.005,0.375,0.158,0.378,0.362l0.019,2.302
		C16.305,11.029,16.144,11.198,15.938,11.203z"/>
	<path fill="#F2F2F2" d="M2.219,17.241c0.084-0.013,0.165-0.054,0.225-0.124c0.133-0.155,0.117-0.39-0.039-0.523l-1.597-1.33
		c-0.154-0.133-0.389-0.118-0.522,0.038c-0.134,0.155-0.116,0.389,0.039,0.523l1.596,1.329C2.007,17.23,2.116,17.257,2.219,17.241z"
		/>
	<path fill="#F2F2F2" d="M4.094,15.499c0.071-0.007,0.141-0.035,0.201-0.083c0.158-0.131,0.18-0.365,0.048-0.522l-1.414-1.647
		c-0.132-0.158-0.366-0.179-0.523-0.05c-0.157,0.131-0.179,0.365-0.049,0.522l1.415,1.647C3.854,15.464,3.976,15.509,4.094,15.499z"
		/>
	<path fill="#F2F2F2" d="M6.276,14.067c0.05-0.006,0.1-0.023,0.146-0.052c0.174-0.107,0.228-0.336,0.121-0.51l-1.236-1.877
		c-0.107-0.175-0.335-0.23-0.511-0.121c-0.174,0.107-0.229,0.335-0.121,0.51l1.237,1.877C5.991,14.021,6.135,14.086,6.276,14.067z"
		/>
	<path fill="#F2F2F2" d="M8.436,12.885c0.043-0.001,0.087-0.011,0.128-0.028c0.189-0.079,0.28-0.294,0.201-0.484l-0.869-2.126
		c-0.079-0.189-0.295-0.28-0.484-0.2c-0.19,0.078-0.28,0.294-0.201,0.484l0.868,2.125C8.141,12.803,8.286,12.891,8.436,12.885z"/>
	<path fill="#F2F2F2" d="M10.874,11.959c0.021-0.003,0.041-0.008,0.062-0.015c0.195-0.063,0.301-0.273,0.237-0.468l-0.619-2.115
		c-0.064-0.194-0.271-0.3-0.468-0.236C9.891,9.19,9.785,9.399,9.85,9.595l0.618,2.114C10.525,11.882,10.699,11.985,10.874,11.959z"
		/>
	<path fill="#F2F2F2" d="M13.363,11.48c0.021,0,0.042-0.003,0.063-0.007c0.201-0.039,0.332-0.234,0.292-0.435l-0.527-2.201
		c-0.04-0.201-0.231-0.333-0.436-0.292c-0.201,0.04-0.332,0.234-0.292,0.436l0.528,2.2C13.025,11.36,13.186,11.484,13.363,11.48z"/>
	<path fill="#F2F2F2" d="M15.344,24.509c-8.23,0-12.972-5.541-13.17-5.776c-0.186-0.222-0.159-0.552,0.06-0.74
		c4.629-4.01,9.421-6.042,14.242-6.042c8.22,0,13.54,5.841,13.761,6.088c0.1,0.111,0.147,0.258,0.132,0.405
		c-0.015,0.147-0.09,0.283-0.209,0.372C25.138,22.593,20.152,24.509,15.344,24.509z M3.347,18.436
		c1.224,1.233,5.505,5.014,11.998,5.014c4.42,0,9.023-1.723,13.692-5.12c-1.371-1.319-6.067-5.32-12.56-5.32
		C12.061,13.009,7.646,14.834,3.347,18.436z"/>
</g>
</svg>
